<?xml version="1.0" encoding="UTF-8"?>
<!DOCTYPE svg PUBLIC "-//W3C//DTD SVG 1.1//EN" "http://www.w3.org/Graphics/SVG/1.1/DTD/svg11.dtd">
<svg xmlns="http://www.w3.org/2000/svg" version="1.1" width="444px" height="181px" style="shape-rendering:geometricPrecision; text-rendering:geometricPrecision; image-rendering:optimizeQuality; fill-rule:evenodd; clip-rule:evenodd" xmlns:xlink="http://www.w3.org/1999/xlink">
<g><path style="opacity:1" fill="#fefefe" d="M -0.5,-0.5 C 147.5,-0.5 295.5,-0.5 443.5,-0.5C 443.5,59.8333 443.5,120.167 443.5,180.5C 295.5,180.5 147.5,180.5 -0.5,180.5C -0.5,120.167 -0.5,59.8333 -0.5,-0.5 Z"/></g>
<g><path style="opacity:1" fill="#030303" d="M 58.5,32.5 C 63.8333,32.5 69.1667,32.5 74.5,32.5C 74.1677,44.5185 74.501,56.5185 75.5,68.5C 76.1067,68.3764 76.44,68.0431 76.5,67.5C 85.6552,62.3502 94.9885,62.1835 104.5,67C 108.187,70.2102 111.021,74.0435 113,78.5C 113.5,63.1703 113.667,47.837 113.5,32.5C 118.833,32.5 124.167,32.5 129.5,32.5C 129.333,48.8367 129.5,65.1701 130,81.5C 130.513,80.4734 131.013,79.4734 131.5,78.5C 135.077,71.3557 140.744,66.5224 148.5,64C 163.256,60.8398 175.256,65.0065 184.5,76.5C 190.753,65.5418 200.086,61.3751 212.5,64C 216.048,64.4405 219.048,65.9405 221.5,68.5C 222.429,67.3112 222.762,65.9778 222.5,64.5C 227.833,64.5 233.167,64.5 238.5,64.5C 238.334,69.5111 238.501,74.5111 239,79.5C 244.39,66.0537 254.223,60.887 268.5,64C 271.698,64.8485 274.531,66.3485 277,68.5C 277.49,67.2068 277.657,65.8734 277.5,64.5C 282.833,64.5 288.167,64.5 293.5,64.5C 293.334,69.8437 293.501,75.1771 294,80.5C 294.513,79.4734 295.013,78.4734 295.5,77.5C 303.697,64.1532 315.364,59.9865 330.5,65C 336.344,67.0124 340.344,70.8457 342.5,76.5C 342.987,77.4734 343.487,78.4734 344,79.5C 344.499,74.5111 344.666,69.5111 344.5,64.5C 349.833,64.5 355.167,64.5 360.5,64.5C 360.337,66.8568 360.503,69.1902 361,71.5C 365.848,63.9443 372.682,61.4443 381.5,64C 383.573,64.1183 384.907,65.1183 385.5,67C 383.764,71.1394 381.764,75.1394 379.5,79C 376.849,78.1422 374.015,77.6422 371,77.5C 365.767,77.1166 362.434,79.45 361,84.5C 360.5,93.8274 360.334,103.161 360.5,112.5C 355.167,112.5 349.833,112.5 344.5,112.5C 344.5,105.167 344.5,97.8333 344.5,90.5C 332.988,90.1719 321.654,90.5052 310.5,91.5C 312.331,99.4261 317.331,102.259 325.5,100C 328.215,99.1224 330.549,97.6224 332.5,95.5C 336.069,97.4526 339.736,99.1192 343.5,100.5C 343.443,101.609 343.11,102.609 342.5,103.5C 334.283,112.958 323.949,116.124 311.5,113C 304.459,110.454 299.126,105.954 295.5,99.5C 294.91,98.234 294.41,96.9007 294,95.5C 293.5,102.826 293.334,110.159 293.5,117.5C 292.595,125.483 288.595,131.317 281.5,135C 271.645,139.27 261.645,139.604 251.5,136C 245.884,134.049 241.884,130.382 239.5,125C 243.03,122.067 247.03,119.9 251.5,118.5C 253.944,119.767 256.277,121.267 258.5,123C 262.5,123.667 266.5,123.667 270.5,123C 276.297,120.24 278.463,115.74 277,109.5C 274.913,110.794 272.746,111.961 270.5,113C 254.898,116.786 244.398,111.286 239,96.5C 244.001,125.819 231.834,139.652 202.5,138C 194.323,136.587 188.323,132.254 184.5,125C 188.389,122.134 192.556,119.634 197,117.5C 201.53,123.171 207.363,125.004 214.5,123C 220.697,120.437 223.031,115.937 221.5,109.5C 215.005,113.224 208.005,114.391 200.5,113C 193.284,111.288 187.951,107.122 184.5,100.5C 175.269,112.079 163.269,116.246 148.5,113C 140.483,110.81 134.817,105.976 131.5,98.5C 130.91,97.234 130.41,95.9007 130,94.5C 129.501,100.491 129.334,106.491 129.5,112.5C 124.167,112.5 118.833,112.5 113.5,112.5C 113.666,107.821 113.499,103.155 113,98.5C 107.155,111.172 97.3221,116.005 83.5,113C 80.421,111.752 77.7543,109.919 75.5,107.5C 74.5481,109.045 74.2148,110.712 74.5,112.5C 69.1667,112.5 63.8333,112.5 58.5,112.5C 58.5,85.8333 58.5,59.1667 58.5,32.5 Z"/></g>
<g><path style="opacity:1" fill="#787878" d="M 58.5,32.5 C 63.9753,31.5111 69.642,31.1778 75.5,31.5C 75.1716,43.6783 75.5049,55.6783 76.5,67.5C 76.44,68.0431 76.1067,68.3764 75.5,68.5C 74.501,56.5185 74.1677,44.5185 74.5,32.5C 69.1667,32.5 63.8333,32.5 58.5,32.5 Z"/></g>
<g><path style="opacity:1" fill="#474747" d="M 113.5,32.5 C 118.975,31.5111 124.642,31.1778 130.5,31.5C 130.17,47.3422 130.504,63.0089 131.5,78.5C 131.013,79.4734 130.513,80.4734 130,81.5C 129.5,65.1701 129.333,48.8367 129.5,32.5C 124.167,32.5 118.833,32.5 113.5,32.5 Z"/></g>
<g><path style="opacity:1" fill="#909090" d="M 293.5,64.5 C 294.167,68.8333 294.833,73.1667 295.5,77.5C 295.013,78.4734 294.513,79.4734 294,80.5C 293.501,75.1771 293.334,69.8437 293.5,64.5 Z"/></g>
<g><path style="opacity:1" fill="#989898" d="M 344.5,64.5 C 344.666,69.5111 344.499,74.5111 344,79.5C 343.487,78.4734 342.987,77.4734 342.5,76.5C 343.167,72.5 343.833,68.5 344.5,64.5 Z"/></g>
<g><path style="opacity:1" fill="#f3f3f3" d="M 316.5,73.5 C 320.131,73.1604 323.464,73.9937 326.5,76C 327.861,77.5843 328.528,79.4176 328.5,81.5C 322.5,81.5 316.5,81.5 310.5,81.5C 311.345,77.9854 313.345,75.3187 316.5,73.5 Z"/></g>
<g><path style="opacity:1" fill="#f9f9f9" d="M 81.5,77.5 C 93.4887,76.3227 98.322,81.656 96,93.5C 92.7231,99.1088 87.8897,100.942 81.5,99C 75.6735,95.8672 73.5068,91.0339 75,84.5C 76.6941,81.6424 78.8607,79.309 81.5,77.5 Z"/></g>
<g><path style="opacity:1" fill="#f8f8f8" d="M 153.5,77.5 C 167.026,76.9134 171.526,82.9134 167,95.5C 161,100.833 155,100.833 149,95.5C 144.885,88.0708 146.385,82.0708 153.5,77.5 Z"/></g>
<g><path style="opacity:1" fill="#fafafa" d="M 206.5,77.5 C 219.183,76.6741 224.017,82.3408 221,94.5C 217.212,99.1532 212.378,100.653 206.5,99C 204,97.8333 202.167,96 201,93.5C 199.016,86.6603 200.85,81.3269 206.5,77.5 Z"/></g>
<g><path style="opacity:1" fill="#f8f8f8" d="M 261.5,77.5 C 266.485,76.7708 270.985,77.7708 275,80.5C 278.386,86.0559 278.22,91.5559 274.5,97C 268.809,100.494 263.309,100.327 258,96.5C 253.77,88.9695 254.937,82.6362 261.5,77.5 Z"/></g>
<g><path style="opacity:1" fill="#b5b5b5" d="M 310.5,91.5 C 321.654,90.5052 332.988,90.1719 344.5,90.5C 344.5,97.8333 344.5,105.167 344.5,112.5C 343.833,109.5 343.167,106.5 342.5,103.5C 343.11,102.609 343.443,101.609 343.5,100.5C 343.5,97.5 343.5,94.5 343.5,91.5C 332.5,91.5 321.5,91.5 310.5,91.5 Z"/></g>
<g><path style="opacity:1" fill="#fafafa" d="M 310.5,91.5 C 321.5,91.5 332.5,91.5 343.5,91.5C 343.5,94.5 343.5,97.5 343.5,100.5C 339.736,99.1192 336.069,97.4526 332.5,95.5C 330.549,97.6224 328.215,99.1224 325.5,100C 317.331,102.259 312.331,99.4261 310.5,91.5 Z"/></g>
<g><path style="opacity:1" fill="#424242" d="M 131.5,98.5 C 130.833,103.167 130.167,107.833 129.5,112.5C 129.334,106.491 129.501,100.491 130,94.5C 130.41,95.9007 130.91,97.234 131.5,98.5 Z"/></g>
<g><path style="opacity:1" fill="#919191" d="M 295.5,99.5 C 294.833,105.5 294.167,111.5 293.5,117.5C 293.334,110.159 293.5,102.826 294,95.5C 294.41,96.9007 294.91,98.234 295.5,99.5 Z"/></g>
<g><path style="opacity:1" fill="#1d1d1d" d="M 217.5,150.5 C 219.962,150.618 222.462,150.951 225,151.5C 225.821,154.554 225.655,157.554 224.5,160.5C 223.52,157.914 223.187,155.247 223.5,152.5C 221.856,152.286 220.356,152.62 219,153.5C 218.667,155.833 218.333,158.167 218,160.5C 217.502,157.183 217.335,153.85 217.5,150.5 Z"/></g>
<g><path style="opacity:1" fill="#272727" d="M 149.5,150.5 C 157.02,151.158 157.187,152.158 150,153.5C 149.506,155.134 149.34,156.801 149.5,158.5C 151.527,158.338 153.527,158.505 155.5,159C 149.138,161.648 146.638,159.481 148,152.5C 148.717,151.956 149.217,151.289 149.5,150.5 Z"/></g>
<g><path style="opacity:1" fill="#2c2c2c" d="M 193.5,150.5 C 195.152,151.807 196.818,151.807 198.5,150.5C 200.029,150.529 201.196,151.196 202,152.5C 202.818,155.227 202.652,157.894 201.5,160.5C 200.52,157.914 200.187,155.247 200.5,152.5C 198.833,152.5 197.167,152.5 195.5,152.5C 195.813,155.247 195.48,157.914 194.5,160.5C 193.513,157.232 193.18,153.898 193.5,150.5 Z"/></g>
<g><path style="opacity:1" fill="#232323" d="M 286.5,148.5 C 288.078,149.066 289.412,150.066 290.5,151.5C 287.833,154.167 287.833,156.833 290.5,159.5C 289.349,160.731 288.183,160.731 287,159.5C 286.9,156.563 286.067,153.896 284.5,151.5C 285.612,150.735 286.279,149.735 286.5,148.5 Z"/></g>
<g><path style="opacity:1" fill="#191919" d="M 248.5,155.5 C 246.076,155.192 243.743,155.526 241.5,156.5C 241.624,157.107 241.957,157.44 242.5,157.5C 244.292,158.309 246.292,158.809 248.5,159C 242.138,161.648 239.638,159.481 241,152.5C 244.589,149.605 247.422,150.271 249.5,154.5C 249.376,155.107 249.043,155.44 248.5,155.5 Z"/></g>
<g><path style="opacity:1" fill="#e8e8e8" d="M 242.5,152.5 C 244.429,152.231 246.095,152.731 247.5,154C 245.5,154.667 243.5,154.667 241.5,154C 242.056,153.617 242.389,153.117 242.5,152.5 Z"/></g>
<g><path style="opacity:1" fill="#161616" d="M 265.5,150.5 C 273.32,151.484 273.32,152.317 265.5,153C 264.167,154.667 264.167,156.333 265.5,158C 267.5,158.333 269.5,158.667 271.5,159C 265.138,161.648 262.638,159.481 264,152.5C 264.717,151.956 265.217,151.289 265.5,150.5 Z"/></g>
<g><path style="opacity:1" fill="#282828" d="M 171.5,150.5 C 176.835,150.005 179.335,152.338 179,157.5C 176.294,160.978 173.294,161.311 170,158.5C 169.109,155.502 169.609,152.836 171.5,150.5 Z"/></g>
<g><path style="opacity:1" fill="#f1f1f1" d="M 172.5,152.5 C 177.159,152.015 178.492,153.848 176.5,158C 174.866,158.494 173.199,158.66 171.5,158.5C 171.325,156.379 171.659,154.379 172.5,152.5 Z"/></g>
<g><path style="opacity:1" fill="#7f7f7f" d="M 248.5,155.5 C 246.5,156.167 244.5,156.833 242.5,157.5C 241.957,157.44 241.624,157.107 241.5,156.5C 243.743,155.526 246.076,155.192 248.5,155.5 Z"/></g>
</svg>
