<?xml version="1.0" standalone="no"?>
<!DOCTYPE svg PUBLIC "-//W3C//DTD SVG 20010904//EN"
 "http://www.w3.org/TR/2001/REC-SVG-20010904/DTD/svg10.dtd">
<svg version="1.0" xmlns="http://www.w3.org/2000/svg"
 width="1350.000000pt" height="363.000000pt" viewBox="0 0 1350.000000 363.000000"
 preserveAspectRatio="xMidYMid meet">
<metadata>
Created by potrace 1.10, written by Peter Selinger 2001-2011
</metadata>
<g transform="translate(0.000000,363.000000) scale(0.100000,-0.100000)"
fill="#050505" stroke="none">
<path d="M1840 3269 c-94 -26 -128 -40 -195 -78 -120 -67 -226 -178 -295 -306
-43 -80 -58 -131 -75 -250 -18 -125 -20 -491 -3 -546 15 -51 69 -106 132 -135
45 -20 54 -29 75 -78 32 -77 26 -88 -46 -79 -32 4 -157 7 -278 7 -210 1 -222
0 -267 -22 -32 -16 -58 -40 -85 -79 -37 -53 -38 -59 -38 -137 1 -47 7 -100 17
-126 8 -25 22 -70 31 -100 24 -86 48 -171 62 -215 6 -22 20 -67 30 -100 9 -33
21 -72 25 -87 7 -22 3 -34 -25 -70 -45 -59 -83 -134 -97 -196 -8 -33 -18 -52
-28 -53 -8 -1 -49 0 -91 1 -68 1 -79 -1 -105 -23 -28 -24 -29 -29 -29 -110 0
-77 3 -88 24 -111 l24 -26 1411 0 c1333 1 1412 2 1431 18 33 29 45 59 45 110
0 115 -31 144 -156 141 -92 -2 -104 4 -104 49 0 38 -74 175 -118 221 -16 16
-9 68 14 113 8 15 14 35 14 45 0 9 6 35 14 58 7 22 20 65 29 95 8 30 22 80 31
110 8 30 27 93 41 140 14 47 25 99 25 116 0 72 -59 179 -115 207 -73 37 -104
40 -340 33 -126 -3 -242 -9 -257 -12 -26 -6 -28 -4 -28 24 0 17 4 34 10 37 5
3 14 23 20 44 8 32 16 40 51 50 53 16 114 73 140 130 19 44 20 58 14 291 -6
226 -21 373 -43 417 -5 10 -24 49 -42 86 -48 98 -119 187 -202 252 -72 57
-221 135 -257 135 -10 0 -38 7 -61 15 -61 22 -246 19 -330 -6z m313 -91 c31
-6 57 -15 57 -20 0 -6 11 -7 25 -4 18 5 27 2 31 -9 4 -8 15 -15 25 -15 24 0
57 -21 123 -75 80 -66 103 -89 122 -126 11 -19 25 -41 32 -49 35 -42 64 -97
73 -143 6 -29 16 -61 22 -72 6 -11 10 -69 9 -130 -2 -105 -3 -111 -28 -131
-30 -25 -77 -20 -143 14 -24 13 -60 22 -85 22 -61 0 -182 57 -238 113 -10 9
-22 17 -28 17 -5 0 -25 14 -44 30 -27 24 -44 31 -81 32 -29 0 -52 -5 -64 -16
-9 -9 -22 -16 -27 -16 -5 0 -29 -16 -53 -35 -24 -19 -49 -35 -56 -35 -7 0 -18
-7 -25 -15 -26 -31 -127 -73 -193 -80 -37 -4 -67 -10 -67 -14 0 -13 -95 -32
-127 -25 -28 6 -33 11 -41 53 -12 60 -7 155 13 245 32 140 172 338 276 389 24
12 62 34 84 48 61 39 93 48 179 54 43 2 81 6 83 9 6 5 73 -2 146 -16z m-84
-650 c17 -22 51 -56 77 -74 69 -49 253 -114 326 -114 58 0 57 3 48 -210 -7
-150 -14 -207 -28 -248 -11 -29 -24 -58 -30 -64 -8 -8 -148 -11 -448 -11 -358
1 -438 3 -445 14 -5 8 -18 43 -28 79 -17 53 -21 100 -23 250 l-3 185 55 6
c147 16 305 84 375 161 25 27 45 54 45 59 0 5 11 9 24 9 17 0 34 -13 55 -42z
m-624 -353 c0 -147 0 -150 -22 -153 -16 -2 -30 8 -52 38 -56 77 -54 160 6 229
61 72 68 59 68 -114z m1207 119 c46 -45 63 -106 47 -168 -12 -48 -61 -106 -89
-106 -16 0 -18 14 -22 143 -4 129 1 167 22 167 3 0 23 -16 42 -36z m-27 -575
c33 -5 138 -9 234 -9 135 -1 181 -4 203 -16 17 -9 36 -13 44 -10 9 3 17 -2 21
-12 4 -9 15 -28 25 -41 33 -43 20 -186 -22 -236 -8 -10 -13 -29 -11 -43 1 -14
-8 -62 -22 -106 -49 -158 -77 -285 -77 -356 0 -36 -6 -56 -23 -77 -20 -25 -32
-53 -52 -129 -9 -34 52 -115 105 -141 45 -22 62 -22 111 2 22 10 31 9 55 -3
16 -9 41 -15 56 -13 58 5 88 -38 51 -72 -14 -11 -32 -14 -73 -10 -30 2 -62 5
-70 4 -20 0 -79 0 -110 0 -14 -1 -86 -3 -160 -5 -126 -5 -473 -5 -1665 -5
-521 0 -548 3 -543 48 3 22 10 27 48 33 25 4 58 13 73 19 20 9 31 9 39 1 6 -6
17 -8 24 -5 8 3 22 2 32 -2 36 -16 112 -2 112 21 0 8 11 32 25 52 19 28 25 49
25 91 0 30 -6 62 -13 70 -19 23 -36 79 -53 173 -23 131 -30 160 -48 200 -9 21
-16 49 -16 63 0 14 -6 36 -14 48 -8 12 -21 56 -30 97 -8 41 -23 108 -32 148
-17 72 -17 75 2 110 41 78 58 90 137 97 94 8 451 17 547 13 206 -8 878 -1 915
9 22 6 51 9 65 6 14 -3 52 -9 85 -14z m-1640 -936 c4 -21 13 -58 21 -82 8 -25
14 -55 14 -68 0 -22 -3 -23 -75 -23 -87 0 -99 11 -72 64 9 17 26 53 37 81 32
76 65 88 75 28z m2114 23 c21 -25 79 -169 74 -183 -4 -10 -24 -13 -82 -11 -86
3 -95 13 -67 70 9 17 19 50 23 72 9 61 29 80 52 52z"/>
<path d="M1708 2299 c-93 -49 -103 -170 -20 -239 81 -67 208 -23 227 80 10 54
20 60 97 60 87 0 108 -10 108 -54 0 -26 9 -43 41 -75 38 -37 46 -41 93 -41 69
0 118 33 142 96 15 39 16 51 4 82 -38 111 -159 147 -243 74 -24 -22 -266 -25
-274 -4 -7 18 -69 42 -107 42 -17 -1 -48 -10 -68 -21z"/>
<path d="M2310 1456 c-13 -17 -90 -56 -108 -56 -6 0 -34 14 -60 30 -27 17 -59
30 -71 30 -36 0 -83 -25 -140 -73 -30 -26 -59 -47 -65 -47 -6 0 -36 26 -68 57
-57 57 -59 58 -116 58 -53 0 -63 -4 -111 -43 -58 -45 -137 -139 -160 -187 -7
-17 -17 -37 -21 -46 -19 -38 -22 -107 -6 -131 9 -12 16 -28 16 -35 0 -6 26
-48 58 -92 70 -98 151 -159 223 -168 44 -5 50 -3 85 31 20 20 46 36 57 36 25
0 83 -36 91 -55 8 -22 62 -18 110 8 22 12 63 45 89 72 l49 50 15 -22 c9 -13
21 -23 29 -23 7 0 20 -15 29 -33 30 -64 132 -84 205 -40 36 22 140 132 140
149 0 8 4 14 9 14 14 0 56 87 70 145 11 43 11 55 -4 85 -27 57 -59 107 -86
132 -13 13 -37 40 -53 61 -33 43 -135 107 -170 107 -13 0 -29 -7 -36 -14z
m-590 -71 c16 -8 34 -24 40 -34 22 -42 11 -67 -65 -152 -41 -46 -75 -87 -75
-91 0 -4 28 -40 63 -79 97 -111 107 -140 62 -184 -31 -32 -80 -33 -105 -2
-176 212 -190 231 -190 261 0 48 199 295 238 296 2 0 16 -7 32 -15z m412 -27
c21 -26 20 -34 -14 -168 -26 -99 -53 -220 -63 -281 -15 -95 -121 -122 -154
-41 -12 29 -2 84 55 303 7 30 14 63 14 73 0 44 31 124 53 134 32 17 89 6 109
-20z m258 19 c8 -7 28 -30 44 -52 17 -22 32 -42 35 -45 4 -3 24 -27 46 -55 21
-27 42 -52 46 -55 12 -10 29 -49 29 -68 0 -19 -160 -228 -202 -264 -46 -40
-118 -3 -118 60 0 39 1 41 102 149 26 28 48 55 48 60 0 4 -17 26 -38 48 -118
126 -135 165 -90 212 24 25 73 31 98 10z m-530 -206 c0 -16 -6 -31 -14 -34 -8
-3 -16 -22 -18 -44 -2 -30 -7 -38 -23 -38 -15 0 -22 10 -29 36 -8 32 -6 41 20
73 36 45 64 48 64 7z m399 -42 c17 -31 8 -77 -17 -86 -9 -3 -27 -15 -38 -25
-30 -27 -38 -9 -19 44 8 24 15 50 15 59 0 19 21 40 35 36 5 -2 16 -15 24 -28z"/>
<path d="M9070 2150 c-182 -26 -346 -161 -417 -342 -26 -68 -28 -83 -28 -213
0 -154 8 -186 73 -298 64 -110 167 -190 312 -241 62 -22 258 -22 326 0 118 38
237 114 232 148 -5 32 -30 30 -72 -8 -136 -120 -375 -145 -555 -58 -138 67
-228 186 -265 349 -21 93 -20 143 2 229 55 204 188 339 377 380 163 36 347 -9
452 -108 33 -32 63 -33 63 -1 0 25 -8 34 -60 68 -101 66 -181 93 -295 99 -49
3 -115 1 -145 -4z"/>
<path d="M3845 2130 c-10 -17 -7 -1062 4 -1073 5 -5 17 -7 25 -4 14 6 16 65
16 547 0 528 0 540 -19 540 -11 0 -23 -4 -26 -10z"/>
<path d="M3945 2134 c-6 -3 -10 -190 -10 -535 0 -494 2 -531 18 -540 12 -7 19
-6 22 3 10 26 0 1071 -10 1074 -5 1 -14 0 -20 -2z"/>
<path d="M4025 2131 c-3 -6 -6 -248 -6 -538 l0 -528 23 0 23 0 0 535 c0 490
-1 535 -17 538 -9 2 -19 -2 -23 -7z"/>
<path d="M4111 2126 c-26 -31 -3 -36 177 -36 210 0 250 -10 323 -81 49 -48 79
-120 79 -191 0 -102 -66 -204 -157 -244 -50 -22 -66 -24 -238 -24 -178 0 -185
-1 -185 -20 0 -29 28 -32 217 -28 158 3 171 5 223 30 68 33 135 98 163 158 32
65 31 196 -1 263 -32 68 -94 131 -155 158 -47 21 -70 23 -242 27 -164 3 -193
2 -204 -12z"/>
<path d="M9011 2035 c-163 -61 -271 -193 -292 -358 -27 -207 52 -388 210 -481
159 -92 348 -87 515 14 55 33 71 53 60 71 -10 16 -30 10 -75 -23 -69 -52 -99
-64 -180 -78 -93 -15 -198 -1 -273 37 -250 126 -304 475 -105 680 80 82 179
122 304 122 108 0 200 -31 263 -89 34 -30 56 -38 66 -21 18 29 -59 87 -170
127 -93 33 -231 33 -323 -1z"/>
<path d="M4123 2035 c-38 -28 -3 -35 173 -35 218 0 248 -11 294 -113 25 -53
25 -81 0 -134 -46 -102 -76 -113 -294 -113 -176 0 -205 -6 -175 -35 11 -10 53
-11 199 -6 209 8 228 14 285 95 25 34 30 53 33 112 4 73 -6 108 -50 163 -39
51 -76 64 -188 68 -58 2 -140 5 -183 7 -49 2 -84 -2 -94 -9z"/>
<path d="M9035 1952 c-103 -45 -153 -91 -202 -184 -25 -49 -27 -62 -28 -168 0
-111 1 -117 34 -184 26 -53 47 -78 93 -115 75 -57 141 -79 239 -80 84 -1 159
20 227 63 49 31 57 43 42 61 -14 16 -30 11 -89 -28 -64 -44 -156 -59 -249 -41
-75 14 -106 29 -156 73 -117 106 -135 314 -38 453 36 51 122 102 200 118 89
18 188 -1 249 -47 46 -35 77 -42 86 -19 7 19 -26 48 -93 83 -49 25 -67 28
-165 30 -87 2 -118 -1 -150 -15z"/>
<path d="M4117 1953 c-4 -3 -7 -15 -7 -25 0 -17 12 -18 175 -18 168 0 175 -1
196 -22 42 -46 43 -85 2 -132 l-23 -26 -175 0 c-165 0 -175 -1 -175 -19 0 -28
18 -31 166 -31 223 0 274 26 274 140 0 74 -28 112 -94 129 -48 12 -328 16
-339 4z"/>
<path d="M5525 1614 c-53 -8 -135 -56 -170 -99 -49 -60 -68 -110 -68 -185 0
-216 222 -354 419 -260 217 104 219 406 4 515 -49 25 -128 37 -185 29z m138
-65 c23 -6 57 -28 87 -57 57 -56 75 -108 66 -194 -7 -73 -39 -121 -107 -168
-48 -32 -57 -35 -128 -34 -88 0 -139 21 -188 77 -120 137 -51 345 128 385 45
10 73 8 142 -9z"/>
<path d="M5473 1492 c-73 -49 -88 -76 -88 -162 0 -68 3 -79 30 -114 32 -42
112 -86 157 -86 42 0 109 29 145 63 132 124 42 327 -144 327 -47 0 -66 -6
-100 -28z m212 -62 c62 -61 56 -168 -13 -215 -30 -20 -49 -25 -101 -25 -62 0
-65 1 -102 40 -62 65 -64 125 -9 192 35 42 52 48 134 43 50 -3 63 -8 91 -35z"/>
<path d="M6165 1611 c-90 -24 -163 -82 -201 -159 -30 -59 -26 -192 6 -256 82
-161 303 -206 447 -92 37 30 76 87 86 126 11 47 0 51 -129 48 -98 -2 -119 -6
-119 -18 0 -10 13 -16 43 -18 46 -3 51 -11 25 -34 -50 -43 -148 -32 -204 22
-35 34 -39 42 -39 90 0 57 17 94 58 125 41 30 149 28 192 -3 34 -25 64 -23 58
5 -2 9 -23 29 -48 44 -54 33 -142 39 -193 13 -169 -86 -151 -304 30 -361 51
-16 57 -16 108 1 33 12 68 33 91 57 43 44 64 49 64 16 0 -26 -48 -76 -100
-103 -55 -28 -173 -26 -225 5 -92 56 -125 109 -125 206 0 79 9 102 57 156 48
54 109 81 182 81 65 1 113 -17 163 -61 41 -36 78 -41 78 -12 0 22 -66 78 -122
103 -43 20 -141 30 -183 19z"/>
<path d="M6803 1611 c-40 -10 -122 -58 -147 -85 -60 -67 -71 -97 -71 -192 0
-71 4 -99 20 -129 32 -63 75 -104 141 -135 115 -55 239 -35 329 55 49 48 84
122 70 145 -4 6 -60 10 -131 10 -114 0 -125 -2 -122 -17 2 -13 15 -19 46 -21
46 -3 47 -5 32 -31 -12 -23 -74 -33 -135 -22 -35 6 -55 18 -81 46 -31 34 -34
43 -34 96 0 54 3 61 36 93 45 44 101 58 162 40 24 -7 52 -20 61 -29 21 -18 53
-10 49 13 -2 9 -23 28 -48 43 -35 22 -58 28 -105 28 -71 1 -122 -24 -169 -82
-28 -35 -31 -46 -31 -105 0 -81 21 -120 84 -162 88 -59 172 -48 258 33 40 39
73 45 73 14 0 -18 -67 -81 -110 -103 -47 -24 -171 -24 -218 0 -105 55 -157
167 -126 276 34 122 160 194 294 167 35 -7 64 -22 100 -53 29 -24 55 -44 60
-44 5 0 12 10 16 22 5 18 -1 29 -32 56 -22 19 -56 42 -77 52 -44 21 -148 32
-194 21z"/>
<path d="M9875 1611 c-96 -27 -168 -85 -207 -167 -29 -63 -29 -173 1 -232 87
-171 299 -225 448 -114 18 13 49 49 70 80 36 55 37 60 37 147 0 73 -4 98 -21
131 -28 54 -90 111 -144 136 -49 22 -140 31 -184 19z m171 -72 c60 -28 99 -72
124 -139 25 -66 22 -107 -11 -171 -24 -48 -54 -79 -103 -109 -32 -19 -54 -24
-115 -24 -66 -1 -82 3 -123 27 -61 35 -96 82 -114 152 -21 81 -1 154 61 220
65 69 186 88 281 44z"/>
<path d="M9830 1489 c-121 -81 -122 -244 -3 -319 81 -52 147 -52 224 0 63 41
83 81 83 162 0 60 -3 71 -30 105 -47 58 -98 83 -169 82 -50 0 -68 -5 -105 -30z
m202 -44 c24 -19 49 -57 61 -97 10 -31 -15 -92 -51 -125 -33 -31 -41 -33 -104
-33 -60 0 -71 3 -101 30 -21 18 -39 46 -47 73 -11 40 -10 49 12 93 30 64 72
86 148 82 35 -3 66 -11 82 -23z"/>
<path d="M12190 1614 c-81 -16 -170 -87 -210 -168 -33 -69 -31 -174 6 -244 75
-145 242 -202 388 -133 78 38 111 70 93 94 -13 19 -19 16 -96 -37 -38 -26 -51
-30 -119 -30 -89 0 -141 21 -187 76 -97 115 -67 294 60 361 86 46 196 36 279
-23 33 -24 49 -31 57 -23 22 22 2 49 -61 85 -66 38 -146 54 -210 42z"/>
<path d="M4874 1599 c-4 -7 -8 -129 -8 -271 -1 -201 2 -262 12 -270 8 -7 16
-8 23 -1 14 14 7 545 -8 550 -6 2 -15 -1 -19 -8z"/>
<path d="M4962 1601 c-11 -6 -13 -62 -10 -272 l3 -264 125 -7 c141 -8 160 -5
160 23 0 11 -7 19 -17 20 -10 0 -63 1 -118 2 -93 2 -100 3 -100 22 0 19 7 20
109 20 93 0 110 3 120 18 19 30 -10 38 -124 35 l-105 -3 -1 195 c-1 107 -2
201 -3 208 -1 14 -20 16 -39 3z"/>
<path d="M7242 1601 c-10 -6 -13 -66 -13 -271 0 -265 3 -287 36 -277 6 3 10
104 10 277 0 173 -4 274 -10 277 -5 1 -16 -1 -23 -6z"/>
<path d="M7339 1600 c-14 -8 -16 -40 -15 -269 1 -143 3 -262 6 -265 3 -3 72
-7 153 -9 119 -4 149 -2 158 10 23 27 -6 35 -137 36 -122 2 -129 3 -129 22 0
19 7 20 129 21 96 1 130 5 137 15 18 30 -9 36 -135 31 -114 -4 -125 -3 -134
14 -6 11 -6 28 -1 42 8 22 11 23 111 16 88 -6 105 -4 117 9 24 30 2 37 -114
37 -63 0 -116 4 -119 8 -2 4 -1 14 4 22 7 12 32 14 118 11 95 -2 110 -1 116
14 3 9 4 21 0 26 -3 5 -57 9 -120 9 -97 0 -116 3 -121 16 -3 9 -2 24 4 32 8
14 30 16 142 13 l133 -3 -4 29 -3 28 -130 0 c-115 0 -130 2 -133 18 -3 15 8
17 132 17 l136 0 0 30 0 30 -142 0 c-79 0 -150 -5 -159 -10z"/>
<path d="M7725 1600 c-4 -6 -8 -128 -8 -271 -2 -203 1 -263 11 -271 8 -7 16
-8 23 -1 14 14 7 545 -8 550 -6 2 -14 -1 -18 -7z"/>
<path d="M7822 1602 c-10 -7 -13 -72 -16 -271 -3 -239 -2 -262 14 -271 31 -17
38 7 33 110 l-6 99 26 6 c42 11 63 -10 96 -96 17 -44 31 -84 31 -88 0 -15 39
-43 49 -36 19 11 12 42 -25 120 -34 72 -39 111 -11 103 13 -5 36 -48 62 -118
30 -81 48 -111 64 -108 24 5 25 37 3 82 -70 148 -69 140 -22 174 77 57 81 182
8 248 -48 45 -82 54 -190 54 -57 0 -109 -4 -116 -8z m267 -78 c29 -24 31 -31
31 -89 0 -57 -3 -67 -27 -90 -36 -33 -51 -36 -153 -33 -77 3 -85 5 -85 23 0
18 8 20 98 25 90 5 100 7 117 30 26 33 25 53 -4 87 -23 26 -31 28 -117 33 -79
4 -94 8 -97 23 -3 15 7 17 101 17 99 0 107 -2 136 -26z m-57 -72 c6 -6 8 -18
6 -28 -3 -17 -15 -19 -96 -22 l-92 -3 0 29 c0 16 3 31 6 34 9 9 166 0 176 -10z"/>
<path d="M10308 1348 c-2 -145 -1 -269 1 -275 2 -7 14 -13 27 -13 13 0 24 6
25 13 3 87 -1 520 -6 527 -3 6 -15 10 -25 10 -18 0 -19 -12 -22 -262z"/>
<path d="M10405 1598 c-10 -28 0 -541 10 -545 6 -2 18 2 28 9 15 12 15 26 7
147 -6 74 -8 136 -6 138 14 14 66 -54 190 -244 23 -35 52 -51 67 -36 5 5 10
125 11 268 2 235 0 259 -15 269 -30 19 -36 -11 -30 -156 7 -162 -1 -173 -57
-80 -19 31 -38 62 -42 67 -5 6 -36 47 -69 93 -56 77 -84 98 -94 70z m78 -125
c5 -7 48 -67 98 -133 66 -89 89 -128 89 -150 0 -36 -13 -38 -35 -7 -9 12 -51
69 -94 127 -88 119 -101 141 -101 169 0 15 4 19 18 14 9 -4 21 -13 25 -20z"/>
<path d="M10760 1593 c-4 -153 1 -528 7 -534 5 -5 14 -5 21 0 11 6 13 65 13
269 0 144 -2 266 -6 272 -10 16 -35 11 -35 -7z"/>
<path d="M10907 1603 c-4 -3 -7 -124 -7 -268 0 -206 3 -265 13 -274 9 -6 17
-7 23 -1 7 7 10 377 4 543 0 9 -24 9 -33 0z"/>
<path d="M10997 1598 c-3 -7 -3 -62 0 -123 2 -60 0 -173 -5 -250 -7 -118 -6
-143 6 -157 12 -15 18 -16 30 -6 12 11 14 35 8 150 -8 167 -3 172 71 61 124
-187 145 -213 169 -213 l24 0 0 269 c0 275 -4 302 -37 268 -13 -13 -14 -33 -7
-134 5 -65 9 -124 9 -132 0 -29 -25 -21 -51 16 -173 252 -203 287 -217 251z
m120 -187 c20 -31 59 -85 86 -121 62 -80 74 -107 59 -122 -16 -16 -30 -2 -102
100 -33 48 -76 107 -95 132 -33 42 -43 78 -28 93 10 10 39 -20 80 -82z"/>
<path d="M11353 1598 c-5 -8 -8 -122 -7 -272 2 -221 4 -260 17 -268 9 -5 18
-4 22 2 5 7 8 325 5 528 0 24 -22 30 -37 10z"/>
<path d="M11492 1598 c-6 -8 -10 -111 -10 -271 0 -236 1 -258 17 -267 37 -20
41 4 41 266 0 139 -3 259 -6 268 -7 19 -28 21 -42 4z"/>
<path d="M11590 1595 c-13 -16 -15 -514 -2 -527 5 -5 74 -10 155 -12 117 -3
149 -1 158 11 24 28 -6 36 -138 37 l-128 1 0 24 0 25 100 -3 c55 -2 114 -4
130 -5 26 -1 30 3 30 24 l0 25 -132 -4 -132 -3 -7 26 c-12 49 7 57 115 50 81
-6 98 -4 110 9 24 30 3 37 -109 37 -108 0 -136 8 -111 33 8 8 46 11 115 8 89
-2 104 -1 110 14 3 9 4 21 0 26 -3 5 -55 9 -115 9 -92 0 -111 3 -116 16 -3 9
-2 24 4 32 8 14 30 16 142 13 l133 -3 -4 29 -3 28 -131 -4 c-112 -3 -132 -1
-137 13 -3 8 -2 18 4 22 6 3 69 5 140 5 l129 -2 0 31 0 30 -149 0 c-118 0
-151 -3 -161 -15z"/>
<path d="M12524 1595 c-4 -8 -4 -22 0 -30 4 -13 38 -15 220 -15 134 0 217 4
221 10 3 6 3 19 0 30 -6 19 -15 20 -221 20 -182 0 -216 -2 -220 -15z"/>
<path d="M4700 1585 c-11 -14 -10 -24 8 -61 33 -66 31 -196 -2 -263 -29 -56
-81 -105 -145 -134 -41 -19 -68 -22 -246 -25 -110 -2 -204 -7 -208 -11 -4 -4
-5 -15 -1 -24 5 -15 26 -17 168 -17 242 0 317 17 402 92 52 46 79 94 97 173
14 61 14 80 2 146 -13 79 -24 108 -48 127 -11 10 -17 9 -27 -3z"/>
<path d="M4633 1519 c-9 -9 -9 -17 -1 -33 6 -11 12 -53 12 -93 0 -64 -3 -76
-30 -115 -54 -77 -88 -87 -311 -87 -189 -1 -193 -1 -193 -22 0 -21 2 -21 208
-17 189 3 210 6 245 25 105 58 151 183 114 307 -13 43 -26 53 -44 35z"/>
<path d="M12140 1489 c-85 -58 -115 -161 -71 -247 24 -47 45 -66 101 -91 55
-25 91 -26 150 -4 60 22 94 52 79 70 -16 18 -37 16 -66 -7 -20 -15 -41 -20
-89 -20 -56 0 -67 3 -97 29 -18 17 -40 48 -47 71 -12 36 -11 46 6 87 28 67 61
88 139 88 50 0 70 -5 94 -23 25 -18 35 -20 51 -12 51 27 -53 90 -149 90 -45
-1 -65 -7 -101 -31z"/>
<path d="M12530 1506 c-6 -6 -10 -18 -10 -28 0 -15 11 -18 77 -20 l77 -3 -3
-197 c-2 -178 -1 -199 14 -204 10 -4 21 -1 26 7 6 8 9 96 7 204 l-3 190 25 0
24 0 1 -200 c0 -193 1 -200 20 -200 19 0 20 7 21 200 l1 200 73 1 c78 2 98 11
82 40 -9 15 -30 17 -216 18 -119 1 -211 -3 -216 -8z"/>
<path d="M4547 1484 c-3 -3 -3 -30 0 -59 7 -70 -1 -99 -34 -121 -24 -16 -54
-20 -217 -24 -138 -4 -190 -8 -193 -17 -8 -24 44 -30 230 -24 l189 6 33 37
c50 54 62 106 41 163 -16 41 -33 55 -49 39z"/>
<path d="M6258 1369 c-5 -4 -8 -15 -6 -25 3 -17 14 -19 121 -19 86 -1 121 3
129 13 8 9 8 16 1 23 -12 12 -228 18 -245 8z"/>
<path d="M6997 1372 c-105 -3 -108 -3 -105 -25 3 -21 7 -22 122 -22 100 1 121
4 130 17 19 30 -2 34 -147 30z"/>
</g>
</svg>
