<?xml version="1.0" standalone="no"?>
<!DOCTYPE svg PUBLIC "-//W3C//DTD SVG 20010904//EN"
 "http://www.w3.org/TR/2001/REC-SVG-20010904/DTD/svg10.dtd">
<svg version="1.0" xmlns="http://www.w3.org/2000/svg"
 width="450.000000pt" height="121.000000pt" viewBox="0 0 450.000000 121.000000"
 preserveAspectRatio="xMidYMid meet">
<metadata>
Created by potrace 1.10, written by Peter Selinger 2001-2011
</metadata>
<g transform="translate(0.000000,121.000000) scale(0.100000,-0.100000)"
fill="#050505" stroke="none">
<path d="M575 1076 c-59 -27 -117 -88 -136 -142 -8 -22 -13 -83 -14 -142 0
-99 1 -105 25 -123 45 -34 50 -40 50 -53 0 -11 -22 -14 -101 -12 -95 1 -102 0
-120 -23 -25 -31 -24 -63 7 -175 l27 -93 -24 -51 c-21 -45 -28 -51 -59 -54
-34 -3 -35 -5 -35 -43 l0 -40 476 -3 c423 -2 478 0 489 14 10 11 11 23 4 42
-7 21 -17 28 -44 30 -32 3 -37 8 -58 56 l-23 53 31 107 c27 93 29 110 18 134
-21 44 -52 54 -151 48 -88 -6 -88 -6 -81 17 4 12 11 24 17 26 6 2 22 15 35 28
24 24 24 29 20 132 -4 93 -8 113 -33 159 -64 117 -201 164 -320 108z m173 -20
c38 -8 99 -64 120 -109 22 -44 25 -61 23 -116 -1 -36 5 -35 -84 -13 -21 6 -56
22 -77 36 -49 32 -56 32 -104 0 -34 -24 -120 -54 -153 -54 -20 0 -16 89 6 135
50 109 142 150 269 121z m-55 -211 c8 -18 72 -51 119 -60 l36 -7 -6 -66 c-8
-112 4 -105 -167 -105 -172 0 -163 -5 -164 104 l-1 66 58 16 c33 9 68 27 81
41 28 30 37 32 44 11z m-207 -115 c0 -32 -4 -50 -12 -50 -24 0 -33 67 -12 88
20 20 24 14 24 -38z m417 -5 c0 -25 -18 -54 -27 -44 -4 4 -9 73 -7 94 2 21 34
-25 34 -50z m137 -165 c18 -9 21 -18 17 -43 -8 -48 -48 -219 -57 -242 -18 -44
-18 -54 1 -73 13 -14 31 -21 58 -20 42 0 64 -8 56 -22 -8 -13 -862 -13 -870 0
-11 18 1 23 54 22 47 -2 50 0 56 27 4 19 -7 80 -30 172 -45 177 -43 187 42
191 156 8 652 -1 673 -12z m-701 -332 c1 -13 -7 -18 -24 -18 -30 0 -30 2 -8
43 15 29 17 30 24 12 4 -11 8 -28 8 -37z m711 16 c13 -34 13 -34 -15 -34 -27
0 -28 3 -19 38 8 29 22 28 34 -4z"/>
<path d="M568 769 c-22 -12 -24 -62 -4 -79 23 -19 59 -8 74 23 9 18 21 27 37
27 16 0 28 -9 37 -27 18 -39 61 -43 83 -9 29 44 -18 91 -66 66 -20 -11 -82 -9
-124 4 -11 3 -28 1 -37 -5z"/>
<path d="M506 450 c-50 -55 -54 -82 -22 -130 14 -22 40 -47 57 -55 28 -15 32
-15 48 0 18 15 51 12 51 -6 0 -16 22 -10 55 15 l32 25 22 -25 c16 -19 28 -23
44 -18 50 15 104 93 94 135 -8 29 -74 99 -94 99 -8 0 -22 -4 -32 -10 -12 -6
-29 -5 -48 2 -26 10 -34 8 -58 -11 l-28 -21 -22 20 c-32 30 -59 25 -99 -20z
m82 -6 c2 -11 -8 -30 -23 -44 l-25 -23 25 -33 c30 -39 32 -64 7 -64 -19 0 -82
70 -82 91 0 13 47 79 64 91 16 11 31 4 34 -18z m120 14 c16 -21 -20 -172 -43
-176 -29 -6 -33 15 -14 93 23 98 33 112 57 83z m126 -38 l38 -49 -37 -46 c-39
-47 -61 -56 -72 -29 -3 9 5 27 22 44 l28 29 -27 31 c-26 31 -32 51 -19 63 14
15 31 5 67 -43z m-221 -49 c-4 -16 -8 -19 -14 -10 -4 7 -3 19 3 26 14 18 19
12 11 -16z m147 -6 c0 -7 -7 -15 -15 -19 -16 -6 -19 3 -9 28 7 18 24 12 24 -9z"/>
<path d="M1287 713 c-11 -11 -8 -351 3 -358 7 -4 10 58 10 179 0 102 -1 186
-3 186 -2 0 -7 -3 -10 -7z"/>
<path d="M1320 718 c-5 -29 -3 -361 2 -365 5 -2 8 79 8 181 0 102 -2 186 -5
186 -3 0 -5 -1 -5 -2z"/>
<path d="M1347 713 c-11 -11 -8 -353 3 -353 6 0 10 67 10 180 0 99 -1 180 -3
180 -2 0 -7 -3 -10 -7z"/>
<path d="M1376 711 c-5 -8 14 -11 63 -11 59 0 74 -4 98 -24 22 -19 28 -32 28
-66 0 -34 -6 -47 -28 -66 -24 -20 -39 -24 -98 -24 -44 0 -68 -4 -64 -10 9 -15
100 -12 139 4 70 29 89 110 38 167 -25 28 -35 32 -99 36 -46 4 -73 2 -77 -6z"/>
<path d="M2966 696 c-57 -34 -86 -88 -86 -159 0 -112 74 -187 183 -187 45 0
127 32 127 50 0 14 -4 13 -45 -11 -43 -26 -118 -28 -162 -5 -101 52 -121 195
-39 273 60 56 155 65 210 22 27 -21 36 -24 36 -9 0 5 -18 19 -40 30 -55 28
-134 27 -184 -4z"/>
<path d="M1374 678 c-3 -5 24 -8 60 -8 71 0 106 -20 106 -60 0 -41 -34 -60
-107 -60 -37 0 -63 -4 -57 -8 5 -5 40 -6 78 -3 74 7 96 23 96 71 0 49 -21 64
-100 70 -39 3 -74 2 -76 -2z"/>
<path d="M2990 672 c-52 -26 -80 -74 -80 -137 0 -95 69 -160 162 -152 44 4
106 32 95 44 -3 2 -17 -3 -32 -13 -18 -11 -45 -18 -77 -17 -171 3 -187 249
-19 278 35 6 64 -2 124 -33 4 -2 7 0 7 5 0 16 -69 43 -108 43 -20 0 -53 -8
-72 -18z"/>
<path d="M1375 650 c-4 -6 18 -10 58 -10 48 0 66 -4 71 -15 13 -34 -4 -45 -71
-45 -40 0 -62 -4 -58 -10 8 -13 86 -13 119 0 37 14 37 66 0 80 -33 13 -111 13
-119 0z"/>
<path d="M2993 640 c-41 -25 -53 -48 -53 -107 0 -55 17 -86 60 -108 51 -26
136 -13 148 23 3 10 -3 9 -22 -3 -29 -19 -94 -22 -125 -5 -12 6 -28 24 -36 40
-50 97 41 197 141 155 48 -20 54 -19 25 5 -30 26 -96 26 -138 0z"/>
<path d="M1577 488 c5 -48 3 -57 -20 -83 -23 -28 -31 -30 -106 -33 -89 -4
-112 -22 -28 -22 118 0 172 39 171 121 0 27 -6 55 -12 61 -8 8 -9 -3 -5 -44z"/>
<path d="M1629 538 c-5 -18 -3 -181 3 -184 4 -3 8 38 8 90 0 53 -2 96 -5 96
-3 0 -5 -1 -6 -2z"/>
<path d="M1652 451 l3 -89 40 -5 c22 -2 44 0 50 4 5 5 -9 9 -33 9 -23 0 -42 5
-42 11 0 6 15 9 34 8 19 -2 38 0 42 4 4 4 -11 7 -34 7 l-42 0 0 70 c0 42 -4
70 -11 70 -6 0 -9 -31 -7 -89z"/>
<path d="M1814 528 c-55 -26 -62 -108 -13 -152 27 -24 38 -27 72 -23 51 7 77
33 84 85 5 36 2 45 -25 72 -32 32 -76 39 -118 18z m116 -38 c30 -56 -6 -120
-67 -120 -41 0 -83 37 -83 73 0 31 34 75 63 79 32 5 76 -11 87 -32z"/>
<path d="M1817 492 c-25 -27 -22 -78 5 -96 12 -9 30 -16 39 -16 27 0 69 39 69
66 0 54 -78 85 -113 46z m81 -14 c16 -16 15 -53 -2 -67 -8 -7 -27 -11 -43 -9
-34 4 -54 47 -33 72 15 19 61 21 78 4z"/>
<path d="M2024 525 c-75 -52 -35 -175 56 -175 29 0 76 26 84 45 11 30 6 35
-36 34 -24 -1 -35 -3 -25 -6 25 -7 10 -23 -22 -23 -33 0 -51 16 -51 46 0 32
25 47 65 41 39 -6 48 9 11 19 -37 9 -57 2 -80 -29 -19 -26 -19 -30 -5 -55 23
-41 62 -51 99 -24 33 24 41 15 12 -11 -47 -43 -132 -4 -132 59 0 62 85 100
130 59 11 -10 23 -15 28 -11 4 4 -4 16 -17 27 -28 23 -88 25 -117 4z"/>
<path d="M2231 514 c-44 -36 -44 -93 -1 -136 27 -27 36 -30 71 -25 44 6 74 27
82 58 5 17 0 19 -41 18 -26 -1 -39 -3 -29 -6 32 -8 17 -24 -20 -21 -31 2 -39
8 -47 31 -16 46 23 71 84 53 24 -7 24 -6 6 8 -25 20 -56 20 -84 0 -30 -21 -30
-77 0 -98 30 -21 50 -20 81 4 14 11 28 16 31 11 10 -15 -35 -41 -72 -41 -40 0
-82 38 -82 73 0 33 34 73 65 79 14 3 41 -3 60 -12 39 -20 47 -10 13 14 -34 24
-82 20 -117 -10z"/>
<path d="M2410 451 c0 -50 5 -93 10 -96 6 -4 10 28 10 89 0 57 -4 96 -10 96
-6 0 -10 -36 -10 -89z"/>
<path d="M2449 538 c-1 -2 -3 -42 -4 -90 l-2 -88 31 0 c17 0 41 -3 54 -6 13
-4 22 -2 22 5 0 6 -19 11 -45 11 -60 0 -58 18 3 23 l47 3 -47 2 c-36 2 -48 6
-48 17 0 13 7 15 34 10 20 -4 36 -2 40 4 5 7 -7 11 -33 11 -23 0 -41 3 -41 8
0 4 18 6 40 4 25 -3 40 0 40 7 0 6 -17 11 -40 11 -22 0 -40 5 -40 10 0 6 20
10 45 10 60 0 58 18 -2 23 l-48 3 48 2 c63 3 61 22 -3 22 -27 0 -51 -1 -51 -2z"/>
<path d="M2579 538 c-5 -24 -2 -181 4 -185 4 -2 7 39 7 91 0 53 -2 96 -5 96
-3 0 -5 -1 -6 -2z"/>
<path d="M2610 538 c-6 -34 -5 -180 1 -184 5 -3 9 13 9 35 0 54 22 54 43 -1 9
-23 20 -39 23 -35 4 3 1 20 -6 37 -7 17 -10 33 -7 37 6 5 12 -7 33 -66 11 -31
15 0 4 33 -10 30 -9 38 4 52 41 40 3 94 -66 94 -21 0 -38 -1 -38 -2z m98 -52
c2 -16 -2 -32 -10 -37 -18 -12 -78 -11 -78 1 0 6 15 10 34 10 62 0 55 45 -7
53 -20 3 -15 4 13 3 42 -1 45 -3 48 -30z m-28 -6 c0 -5 -13 -10 -30 -10 -16 0
-30 5 -30 10 0 6 14 10 30 10 17 0 30 -4 30 -10z"/>
<path d="M3249 511 c-58 -59 -26 -147 58 -158 37 -5 45 -2 73 25 43 43 43 100
-1 136 -43 36 -91 35 -130 -3z m131 -19 c27 -33 25 -68 -5 -97 -42 -43 -115
-30 -132 22 -14 42 -2 76 35 94 40 20 77 14 102 -19z"/>
<path d="M3270 490 c-26 -26 -25 -64 2 -90 44 -40 108 -14 108 45 0 58 -69 86
-110 45z m90 -20 c15 -29 3 -59 -26 -66 -46 -12 -79 21 -63 64 11 30 73 32 89
2z"/>
<path d="M3440 450 c0 -53 4 -90 10 -90 6 0 10 37 10 90 0 53 -4 90 -10 90 -6
0 -10 -37 -10 -90z"/>
<path d="M3470 444 c0 -67 3 -93 11 -88 7 4 9 24 6 50 -2 24 -2 44 2 44 3 0
20 -20 36 -45 17 -24 35 -45 40 -45 6 0 9 33 8 83 -2 104 -5 115 -12 48 l-6
-54 -35 51 c-19 29 -38 52 -42 52 -5 0 -8 -43 -8 -96z m58 11 c37 -51 44 -85
8 -40 -34 41 -59 85 -49 85 4 -1 23 -21 41 -45z"/>
<path d="M3590 445 c0 -54 3 -96 6 -92 3 3 6 44 6 92 0 48 -3 89 -6 92 -3 4
-6 -38 -6 -92z"/>
<path d="M3644 445 c0 -55 1 -76 3 -47 2 29 2 74 0 100 -2 26 -3 2 -3 -53z"/>
<path d="M3668 452 c-3 -98 9 -141 14 -50 l3 53 34 -47 c19 -27 38 -48 43 -48
4 0 8 41 8 91 0 60 -3 88 -10 84 -7 -4 -9 -25 -5 -53 6 -46 6 -47 -12 -26 -10
11 -30 36 -45 55 l-26 34 -4 -93z m57 -2 c21 -28 35 -53 32 -56 -6 -6 -77 84
-77 97 0 17 8 9 45 -41z"/>
<path d="M3789 535 c-7 -6 -2 -175 5 -182 3 -4 6 37 6 90 0 93 -1 103 -11 92z"/>
<path d="M3830 450 c0 -53 4 -90 10 -90 6 0 10 37 10 90 0 53 -4 90 -10 90 -6
0 -10 -37 -10 -90z"/>
<path d="M3864 527 c-3 -8 -4 -49 -2 -91 l3 -78 53 -2 c28 -2 52 1 52 5 0 5
-20 9 -45 9 -27 0 -45 5 -45 11 0 8 15 10 45 7 25 -3 45 -2 45 3 0 5 -20 9
-45 9 -34 0 -45 4 -45 15 0 13 7 15 34 10 20 -4 36 -2 40 4 5 7 -7 11 -33 11
-23 0 -41 4 -41 8 0 4 15 6 34 4 18 -2 37 1 40 7 5 7 -7 11 -33 11 -23 0 -41
5 -41 10 0 6 20 10 45 10 60 0 58 18 -2 23 l-48 3 48 2 c63 3 61 22 -3 22 -33
0 -52 -5 -56 -13z"/>
<path d="M4019 511 c-80 -80 27 -210 119 -145 12 8 22 20 22 25 0 6 -10 3 -22
-5 -44 -31 -104 -18 -123 26 -16 39 -8 76 22 95 27 18 80 20 96 4 13 -13 27
-14 27 -3 0 13 -48 32 -81 32 -20 0 -40 -10 -60 -29z"/>
<path d="M4180 530 c0 -6 32 -10 76 -10 47 0 73 4 69 10 -3 6 -37 10 -76 10
-39 0 -69 -4 -69 -10z"/>
<path d="M1548 472 c5 -53 -14 -66 -107 -73 l-76 -6 75 -1 c53 -1 82 2 97 13
23 16 37 57 28 86 -11 32 -21 21 -17 -19z"/>
<path d="M4040 490 c-57 -57 22 -144 86 -95 18 14 16 15 -22 9 -35 -5 -44 -3
-57 16 -10 15 -13 29 -7 44 6 17 15 21 55 20 42 0 45 1 29 13 -26 19 -61 16
-84 -7z"/>
<path d="M4180 500 c0 -5 11 -10 25 -10 23 0 24 -3 28 -72 l3 -73 2 73 c1 39
6 72 12 72 5 0 11 -33 13 -72 l3 -73 2 73 2 72 31 0 c17 0 28 4 24 10 -3 6
-37 10 -76 10 -39 0 -69 -4 -69 -10z"/>
<path d="M1520 473 c0 -37 -12 -43 -93 -43 -33 0 -57 -4 -51 -8 5 -5 40 -6 79
-3 65 6 70 8 79 34 7 19 6 31 -2 39 -9 9 -12 5 -12 -19z"/>
<path d="M2090 452 c0 -4 18 -7 40 -7 22 0 40 3 40 7 0 5 -18 8 -40 8 -22 0
-40 -3 -40 -8z"/>
<path d="M2300 452 c0 -10 76 -9 86 1 4 4 -14 7 -39 7 -26 0 -47 -4 -47 -8z"/>
</g>
</svg>
