<?xml version="1.0" standalone="no"?>
<!DOCTYPE svg PUBLIC "-//W3C//DTD SVG 20010904//EN"
 "http://www.w3.org/TR/2001/REC-SVG-20010904/DTD/svg10.dtd">
<svg version="1.0" xmlns="http://www.w3.org/2000/svg"
 width="500.000000pt" height="500.000000pt" viewBox="0 0 500.000000 500.000000"
 preserveAspectRatio="xMidYMid meet">

<g transform="translate(0.000000,500.000000) scale(0.100000,-0.100000)"
fill="#000000" stroke="none">
<path d="M1330 2645 l0 -295 60 0 c53 0 60 2 60 20 0 18 2 18 38 -6 31 -22 45
-25 90 -22 59 5 95 27 130 78 l22 33 0 -52 0 -51 60 0 60 0 0 58 0 57 19 -31
c66 -109 245 -126 343 -33 l38 36 24 -32 c47 -61 136 -82 211 -51 l35 15 0
-29 c0 -61 -98 -93 -153 -50 l-26 20 -45 -22 c-25 -12 -46 -27 -46 -34 0 -26
69 -72 125 -85 66 -15 153 -2 195 29 55 41 70 78 70 175 l0 91 29 -45 c20 -32
41 -51 70 -62 51 -21 117 -22 154 -3 26 15 27 14 27 -14 0 -64 -95 -95 -153
-50 l-26 20 -45 -22 c-25 -12 -46 -26 -46 -31 0 -5 15 -24 33 -42 85 -85 293
-61 341 39 9 19 19 72 23 116 6 81 6 81 23 55 64 -97 214 -113 306 -33 l34 30
0 -36 0 -36 60 0 60 0 0 95 c0 52 5 105 11 119 14 31 54 46 93 35 16 -5 33 -6
37 -3 13 8 42 94 35 102 -4 4 -32 7 -61 7 -46 0 -58 -4 -84 -29 l-31 -30 0 27
c0 26 -2 27 -60 27 l-60 0 -1 -52 c0 -39 -2 -48 -9 -32 -4 11 -22 32 -39 46
-89 76 -229 57 -292 -39 l-19 -28 0 53 0 52 -65 0 c-49 0 -65 -3 -65 -14 0
-11 -8 -10 -37 5 -77 39 -168 14 -214 -60 l-29 -45 0 57 0 57 -60 0 c-45 0
-60 -4 -60 -14 0 -11 -8 -10 -37 5 -73 37 -161 17 -210 -48 l-27 -35 -20 27
c-28 39 -110 75 -172 75 -66 0 -146 -39 -179 -88 l-25 -37 0 178 0 178 -57 -3
-58 -3 -3 -169 -2 -168 -23 32 c-35 52 -70 73 -129 77 -39 3 -63 -1 -90 -15
l-38 -20 0 134 0 134 -60 0 -60 0 0 -295z m1958 -42 l14 -23 -66 0 c-36 0 -66
3 -66 7 0 3 8 15 17 25 23 26 81 21 101 -9z m-1719 -8 c31 -16 41 -33 41 -74
0 -61 -62 -96 -118 -67 -60 31 -58 111 3 144 27 15 41 15 74 -3z m535 -7 c15
-13 29 -37 32 -55 5 -27 1 -37 -25 -64 -27 -26 -37 -30 -63 -25 -60 12 -90 63
-66 114 13 27 50 52 80 52 9 0 28 -10 42 -22z m398 -5 c12 -11 18 -30 18 -58
0 -48 -19 -71 -68 -81 -26 -5 -36 -1 -62 24 -18 19 -30 41 -30 57 0 16 12 38
30 57 26 25 36 29 62 24 18 -3 40 -14 50 -23z m392 5 c15 -13 29 -37 32 -55 5
-27 1 -37 -25 -64 -27 -26 -37 -30 -63 -25 -60 12 -90 63 -66 114 13 27 50 52
80 52 9 0 28 -10 42 -22z m516 -118 l0 -40 -45 22 c-42 20 -45 21 -63 5 -11
-10 -35 -17 -60 -17 -32 0 -45 6 -61 26 -12 15 -21 31 -21 35 0 5 56 9 125 9
l125 0 0 -40z"/>
<path d="M2988 2077 c-8 -22 7 -70 22 -75 12 -4 13 -2 3 9 -15 15 -17 46 -4
51 5 2 3 8 -4 15 -10 9 -14 9 -17 0z"/>
<path d="M1984 2056 c-14 -37 22 -74 47 -49 6 6 1 9 -13 9 -33 -1 -31 36 2 45
l25 7 -28 1 c-16 1 -30 -5 -33 -13z"/>
<path d="M2144 2056 c-11 -28 1 -51 25 -51 28 0 47 25 38 49 -8 20 -56 21 -63
2z m50 -5 c9 -14 -4 -41 -19 -41 -18 0 -28 17 -21 35 6 17 32 20 40 6z"/>
<path d="M2317 2063 c-11 -10 -8 -51 3 -58 6 -4 10 7 10 24 0 21 5 31 15 31
10 0 15 -10 15 -32 0 -24 3 -29 11 -21 19 19 2 63 -25 63 -12 0 -26 -3 -29 -7z"/>
<path d="M2491 2033 c1 -36 2 -37 8 -8 3 17 13 30 21 30 8 0 18 -13 22 -30 6
-29 6 -29 5 5 -2 30 -6 35 -29 38 -26 3 -28 1 -27 -35z"/>
<path d="M2660 2055 c-10 -12 -11 -21 -3 -33 11 -19 53 -29 53 -13 0 6 -6 8
-14 5 -8 -3 -17 -1 -21 5 -4 7 4 11 20 11 20 0 26 4 23 18 -4 23 -41 27 -58 7z
m40 -5 c0 -5 -7 -10 -15 -10 -8 0 -15 5 -15 10 0 6 7 10 15 10 8 0 15 -4 15
-10z"/>
<path d="M2825 2050 c-4 -12 -1 -27 5 -35 14 -16 50 -20 50 -6 0 5 -9 7 -20 4
-19 -5 -21 -2 -24 29 -1 7 10 15 24 19 l25 7 -27 1 c-19 1 -29 -5 -33 -19z"/>
</g>
</svg>
